<svg viewBox="0 0 14 10" xmlns="http://www.w3.org/2000/svg" id="checkbox"><path fill-rule="evenodd" clip-rule="evenodd" d="M13.6035 0.242611C13.7589 0.398156 13.8462 0.609004 13.8462 0.828842C13.8462 1.04868 13.7589 1.25953 13.6035 1.41507L5.86088 9.15774C5.70533 9.31309 5.49448 9.40035 5.27465 9.40035C5.05481 9.40035 4.84396 9.31309 4.68842 9.15774L0.264034 4.73336C0.182529 4.65741 0.117156 4.56583 0.0718154 4.46407C0.0264744 4.36231 0.0020944 4.25246 0.000129106 4.14107C-0.00183619 4.02968 0.0186536 3.91904 0.0603766 3.81574C0.1021 3.71245 0.164201 3.61861 0.242976 3.53984C0.32175 3.46106 0.415585 3.39896 0.518881 3.35724C0.622177 3.31552 0.732819 3.29503 0.844206 3.29699C0.955593 3.29896 1.06544 3.32334 1.1672 3.36868C1.26896 3.41402 1.36055 3.47939 1.4365 3.5609L5.27465 7.39905L12.4311 0.242611C12.5866 0.0872592 12.7975 0 13.0173 0C13.2372 0 13.448 0.0872592 13.6035 0.242611Z"/></svg>