<svg viewBox="0 0 29 27" xmlns="http://www.w3.org/2000/svg" id="search"><path d="M22.235 25L17.735 20.5L22.235 16L27.235 20C31.735 24 26.235 29 22.235 25Z" fill-opacity="0.501961"/><path d="M21.735 10.5C21.735 16.299 17.034 21 11.235 21C5.436 21 0.734985 16.299 0.734985 10.5C0.734985 4.70101 5.436 0 11.235 0C17.034 0 21.735 4.70101 21.735 10.5ZM4.59782 10.5C4.59782 14.1656 7.56938 17.1372 11.235 17.1372C14.9006 17.1372 17.8722 14.1656 17.8722 10.5C17.8722 6.83439 14.9006 3.86283 11.235 3.86283C7.56938 3.86283 4.59782 6.83439 4.59782 10.5Z" fill-opacity="0.501961"/></svg>