<?xml version="1.0" encoding="utf-8"?><svg xmlns="http://www.w3.org/2000/svg" xmlns:xlink="http://www.w3.org/1999/xlink"><defs/><symbol viewBox="0 0 14 10" id="checkbox" xmlns="http://www.w3.org/2000/svg"><path fill-rule="evenodd" clip-rule="evenodd" d="M13.604.243a.83.83 0 0 1 0 1.172L5.86 9.158a.83.83 0 0 1-1.173 0L.264 4.733a.83.83 0 1 1 1.173-1.172l3.838 3.838L12.43.243a.83.83 0 0 1 1.173 0Z"/></symbol><symbol viewBox="0 0 29 27" id="search" xmlns="http://www.w3.org/2000/svg"><path d="m22.235 25-4.5-4.5 4.5-4.5 5 4c4.5 4-1 9-5 5ZM21.735 10.5c0 5.799-4.701 10.5-10.5 10.5S.735 16.299.735 10.5 5.436 0 11.235 0s10.5 4.701 10.5 10.5Zm-17.137 0a6.637 6.637 0 1 0 13.274 0 6.637 6.637 0 0 0-13.274 0Z" fill-opacity=".502"/></symbol></svg>